:SAMPLES-PER-SECOND 30
:FULLY-SPECIFIED
:DEGREES
132
root  -34.1661 39.764 -26.5177 173.708 -6.1891 -175.953
RightUpLeg  -12.7374 -12.1018 2.57578
RightLeg  20.4376 -3.74695 1.47771
RightFoot  -0.579657 0.5466 -5.83365
RightToes  2.32829e-010 0 -3.6325e-017
Spine  4.65682 0.329096 16.3546
Spine1  7.37628 1.76077 -2.58481
HEad  -8.41062 -8.94052 -0.594198
LeftShoulder1  8.40545 -11.7197 -48.1903
LeftArm  -4.83237 25.0848 -30.6263
LeftForeArm  22.0271 -18.714 -4.25217
LeftHand  -0.244104 0.0205437 5.32207
RightShoulder  6.23555 9.85821 40.4998
RightArm  6.43805 -8.53919 27.267
RightForeArm  -6.56691 23.2108 5.34229
RightHand  -1.04067 1.61755 -17.3146
LeftUpLeg  -22.4142 4.39125 4.15369
LeftLeg  61.4692 3.16642 6.89151
LeftFoot  2.20193 0.236701 -2.12089
LeftToes  -2.63786e-011 3.77076e-011 -4.2586e-012
133
root  -34.1274 40.0775 -27.557 173.793 -5.62654 -176.453
RightUpLeg  -9.87705 -10.5089 1.59418
RightLeg  18.4146 -4.79995 2.261
RightFoot  -1.11963 0.526179 -5.95876
RightToes  2.32829e-010 0 -3.6325e-017
Spine  4.92732 0.774926 15.8949
Spine1  7.2534 2.27624 -3.33383
HEad  -8.42024 -9.25632 -0.452096
LeftShoulder1  8.32304 -11.6502 -47.9336
LeftArm  -4.87907 25.3601 -30.3162
LeftForeArm  21.6664 -20.5864 -3.91416
LeftHand  -0.244104 0.0205437 5.32207
RightShoulder  6.25932 9.92279 40.4553
RightArm  5.21492 -7.59237 27.3021
RightForeArm  -5.80491 25.6001 5.7774
RightHand  -0.992334 1.29491 -17.296
LeftUpLeg  -24.0081 6.01985 2.9502
LeftLeg  52.033 3.62059 5.458
LeftFoot  1.66107 0.379871 -3.40435
LeftToes  -2.63786e-011 3.77076e-011 -4.2586e-012
134
root  -34.124 40.2938 -28.5928 173.731 -4.76613 -176.887
RightUpLeg  -7.29741 -9.38586 1.01365
RightLeg  17.0369 -5.09239 2.65149
RightFoot  -2.08377 0.487935 -6.19207
RightToes  2.32829e-010 0 -3.6325e-017
Spine  4.93924 1.09323 15.4906
Spine1  7.5848 2.67802 -4.05466
HEad  -8.62453 -9.22303 -0.372583
LeftShoulder1  8.24489 -11.6099 -47.6054
LeftArm  -5.60157 25.5304 -30.1099
LeftForeArm  21.9239 -21.9805 -3.78098
LeftHand  -0.244104 0.0205437 5.32207
RightShoulder  6.30281 10.0509 40.3416
RightArm  4.22569 -6.78906 27.6956
RightForeArm  -5.49285 28.0198 6.34239
RightHand  -1.02943 1.42048 -17.6051
LeftUpLeg  -23.6474 7.39782 1.93238
LeftLeg  40.392 2.94665 3.08871
LeftFoot  2.85937 0.553777 -4.59062
LeftToes  -2.63786e-011 3.77076e-011 -4.2586e-012
135
root  -34.1579 40.4258 -29.6447 173.632 -3.51683 -177.149
RightUpLeg  -5.19051 -8.83931 0.81291
RightLeg  16.484 -4.4841 2.71205
RightFoot  -3.40358 0.416839 -6.32596
RightToes  2.32829e-010 0 -3.6325e-017
Spine  4.59327 1.38308 15.1744
Spine1  8.1575 3.03022 -4.61598
HEad  -8.51764 -8.78362 -0.332669
LeftShoulder1  8.19378 -11.5788 -47.4045
LeftArm  -6.46387 25.6042 -29.8918
LeftForeArm  22.0616 -22.5887 -3.78231
LeftHand  -0.244104 0.0205437 5.32207
RightShoulder  6.35055 10.1254 40.4327
RightArm  4.19275 -5.96746 28.1299
RightForeArm  -5.49975 29.8358 6.78968
RightHand  -1.15054 2.009 -18.1235
LeftUpLeg  -21.8922 7.86481 1.31354
LeftLeg  28.7208 1.14075 1.01402
LeftFoot  4.58313 0.616701 -4.6088
LeftToes  -2.63786e-011 3.77076e-011 -4.2586e-012
136
root  -34.2312 40.4667 -30.7087 173.367 -1.83327 -177.056
RightUpLeg  -3.32084 -8.98503 0.900021
RightLeg  16.725 -2.80617 2.79073
RightFoot  -4.84988 0.31466 -6.11266
RightToes  2.32829e-010 0 -3.6325e-017
Spine  4.09278 1.62472 15.0027
Spine1  8.72752 3.28627 -4.80434
HEad  -7.84398 -7.77226 -0.479026
LeftShoulder1  8.12631 -11.48 -47.3218
LeftArm  -7.3158 25.7769 -29.771
LeftForeArm  22.0476 -22.5562 -3.77805
LeftHand  -0.244104 0.0205437 5.32207
RightShoulder  6.34905 10.0888 40.5408
RightArm  5.08185 -5.07172 28.8275
RightForeArm  -5.47736 30.2082 6.88393
RightHand  -1.25751 2.53489 -18.5031
LeftUpLeg  -19.1439 7.67143 1.4714
LeftLeg  19.0606 -0.748188 0.0281082
LeftFoot  5.58387 0.643045 -4.5446
LeftToes  -2.63786e-011 3.77076e-011 -4.2586e-012
137
root  -34.3339 40.4399 -31.7842 172.867 -0.104538 -176.535
RightUpLeg  -1.17442 -9.55281 1.17441
RightLeg  17.1506 -0.676496 2.98194
RightFoot  -6.33115 0.202734 -5.60228
RightToes  2.32829e-010 0 -3.6325e-017
Spine  3.41655 1.66415 14.8243
Spine1  9.35629 3.2446 -4.51746
HEad  -6.82405 -6.30029 -0.912041
LeftShoulder1  8.01991 -11.3232 -47.1924
LeftArm  -8.27238 26.3492 -29.8557
LeftForeArm  21.9086 -22.3704 -3.76618
LeftHand  -0.244104 0.0205437 5.32207
RightShoulder  6.27268 9.96727 40.4032
RightArm  6.44519 -4.41607 30.0664
RightForeArm  -5.53757 29.0557 6.59898
RightHand  -1.30761 2.82466 -18.567
LeftUpLeg  -15.8336 7.38749 2.28154
LeftLeg  12.5372 -1.2532 -0.270787
LeftFoot  6.46385 0.562177 -3.85367
LeftToes  -2.63786e-011 3.77076e-011 -4.2586e-012
138
root  -34.4417 40.394 -32.8548 172.377 1.13454 -176.032
RightUpLeg  1.1356 -10.1636 1.37242
RightLeg  17.3559 1.07904 2.80366
RightFoot  -8.12974 0.0833107 -4.91013
RightToes  2.32829e-010 0 -3.6325e-017
Spine  2.47071 1.46913 13.9212
Spine1  10.0369 2.80455 -3.78941
HEad  -5.80509 -4.77966 -1.40179
LeftShoulder1  7.93562 -11.1807 -47.1478
LeftArm  -9.10063 27.1401 -29.8321
LeftForeArm  21.6226 -22.1952 -3.76147
LeftHand  -0.244104 0.0205437 5.32207
RightShoulder  6.23387 9.84408 40.5352
RightArm  7.63204 -4.46861 31.1654
RightForeArm  -5.84644 27.2442 6.17371
RightHand  -1.34516 3.12369 -18.4408
LeftUpLeg  -12.8933 6.45204 3.13062
LeftLeg  9.5509 0.503105 -0.674628
LeftFoot  7.69053 0.109181 -0.94455
LeftToes  -2.63786e-011 3.77076e-011 -4.2586e-012
139
root  -34.5282 40.3522 -33.8629 172.123 1.84659 -176.291
RightUpLeg  2.4961 -10.707 1.05552
RightLeg  18.4652 2.43871 1.89408
RightFoot  -10.0864 -0.0242803 -3.83227
RightToes  2.32829e-010 0 -3.6325e-017
Spine  1.68769 1.24011 11.4345
Spine1  10.3491 2.1471 -2.56786
HEad  -5.01103 -3.51575 -1.54401
LeftShoulder1  7.91342 -11.0591 -47.4122
LeftArm  -9.56212 27.4419 -29.3488
LeftForeArm  21.3869 -21.5805 -3.74642
LeftHand  -0.244104 0.0205437 5.32207
RightShoulder  6.37057 9.82275 41.5669
RightArm  8.15495 -5.39552 31.2958
RightForeArm  -6.28245 25.4674 5.76424
RightHand  -1.40091 3.48265 -18.4357
LeftUpLeg  -11.3022 6.42027 2.69734
LeftLeg  9.80886 1.77788 -0.719033
LeftFoot  8.13218 -0.528178 2.81383
LeftToes  -2.63786e-011 3.77076e-011 -4.2586e-012
140
root  -34.5978 40.3241 -34.7371 172.054 2.52971 -177.486
RightUpLeg  1.68198 -9.92552 0.0124178
RightLeg  22.4542 2.71753 0.898119
RightFoot  -10.7795 -0.0654555 -1.73109
RightToes  2.32829e-010 0 -3.6325e-017
Spine  1.76105 1.17207 7.74257
Spine1  9.8515 1.64887 -1.17386
HEad  -4.59652 -2.52273 -1.2039
LeftShoulder1  7.89266 -10.9326 -47.7051
LeftArm  -10.0485 26.9097 -28.6436
LeftForeArm  21.2599 -20.156 -3.75488
LeftHand  -0.244104 0.0205437 5.32207
RightShoulder  6.6218 9.92414 42.9734
RightArm  7.89074 -6.99941 31.0542
RightForeArm  -6.45455 23.3491 5.39788
RightHand  -1.44812 3.67398 -18.6545
LeftUpLeg  -10.7442 7.19291 1.36462
LeftLeg  11.705 2.04649 -0.488874
LeftFoot  6.94536 -0.761954 4.45484
LeftToes  -2.63786e-011 3.77076e-011 -4.2586e-012
141
root  -34.6986 40.3249 -35.4697 172.044 3.66411 -178.966
RightUpLeg  -1.29606 -7.31016 -1.61023
RightLeg  29.4459 1.69686 0.816777
RightFoot  -8.83736 -0.115816 1.99893
RightToes  2.32829e-010 0 -3.6325e-017
Spine  2.72458 1.26709 4.69508
Spine1  8.66218 1.58804 -0.686216
HEad  -4.63688 -1.7394 -0.655236
LeftShoulder1  7.81404 -10.8427 -47.5222
LeftArm  -11.1413 26.0643 -28.2089
LeftForeArm  20.9858 -18.4788 -3.80292
LeftHand  -0.244104 0.0205437 5.32207
RightShoulder  6.7736 10.0487 43.5899
RightArm  6.09413 -8.98921 31.7039
RightForeArm  -4.84824 20.1527 5.59166
RightHand  -1.43277 3.54758 -18.7137
LeftUpLeg  -10.131 8.55094 0.124943
LeftLeg  13.1091 1.90096 -0.539447
LeftFoot  5.04659 -0.563513 3.69087
LeftToes  -2.63786e-011 3.77076e-011 -4.2586e-012
142
root  -34.8678 40.3622 -36.1158 172.101 5.20938 179.96
RightUpLeg  -5.18029 -6.11665 -3.37783
RightLeg  36.7531 1.98323 1.33246
RightFoot  -5.1693 -0.411077 6.92146
RightToes  2.32829e-010 0 -3.6325e-017
Spine  3.89375 1.35898 3.54906
Spine1  7.3713 1.85349 -1.70836
HEad  -5.05166 -1.12978 -0.349097
LeftShoulder1  7.72236 -10.838 -46.9707
LeftArm  -12.5389 25.5553 -28.0166
LeftForeArm  20.4294 -17.6923 -3.76274
LeftHand  -0.244104 0.0205437 5.32207
RightShoulder  6.74207 10.0949 43.2184
RightArm  2.50837 -11.1067 33.1395
RightForeArm  -0.409722 16.2005 6.59681
RightHand  -1.30852 3.05626 -18.0824
LeftUpLeg  -9.0288 9.49545 -0.424959
LeftLeg  13.2624 2.69913 -1.0716
LeftFoot  3.6345 -0.408039 2.94605
LeftToes  -2.63786e-011 3.77076e-011 -4.2586e-012
143
root  -35.0797 40.4368 -36.7301 172.339 6.65952 179.493
RightUpLeg  -8.68327 -5.66364 -4.65024
RightLeg  41.4161 2.11871 1.7078
RightFoot  -2.61165 -0.812709 10.4998
RightToes  2.32829e-010 0 -3.6325e-017
Spine  4.67497 1.32255 3.68546
Spine1  6.35743 2.04779 -3.10075
HEad  -5.75222 -0.440086 -0.689451
LeftShoulder1  7.68897 -10.8602 -46.6889
LeftArm  -13.6234 25.3631 -27.5692
LeftForeArm  20.0184 -18.2814 -3.64422
LeftHand  -0.244104 0.0205437 5.32207
RightShoulder  6.65629 10.0572 42.7611
RightArm  -0.0932835 -13.1825 34.0072
RightForeArm  4.21298 12.9774 7.40025
RightHand  -1.08483 2.18324 -16.7211
LeftUpLeg  -7.90413 8.98446 -0.393042
LeftLeg  12.866 4.92485 -1.7667
LeftFoot  2.71706 -0.438953 3.42707
LeftToes  -2.63786e-011 3.77076e-011 -4.2586e-012
144
root  -35.2742 40.6001 -37.3227 172.783 7.61301 179.482
RightUpLeg  -10.869 -5.41204 -5.13083
RightLeg  41.6267 1.55554 1.19924
RightFoot  -2.41129 -0.840594 10.505
RightToes  2.32829e-010 0 -3.6325e-017
Spine  5.05028 1.17397 3.89301
Spine1  5.53002 1.94455 -3.39632
HEad  -6.65724 0.323634 -1.41664
LeftShoulder1  7.65611 -10.7588 -46.8232
LeftArm  -14.6007 25.1442 -26.7485
LeftForeArm  20.032 -19.764 -3.5825
LeftHand  -0.244104 0.0205437 5.32207
RightShoulder  6.62636 9.9673 42.8591
RightArm  -0.78438 -15.2472 33.511
RightForeArm  7.0485 11.415 7.68518
RightHand  -0.861842 1.23054 -15.2095
LeftUpLeg  -6.68434 7.72133 -0.144574
LeftLeg  11.6393 7.12035 -2.37505
LeftFoot  2.24235 -0.485436 3.95818
LeftToes  -2.63786e-011 3.77076e-011 -4.2586e-012
